<svg xmlns="http://www.w3.org/2000/svg" width="155.131" height="72" viewBox="0 0 155.131 72">
  <g id="logo_torelly" transform="translate(-202.76 -169.22)">
    <g id="Grupo_76" data-name="Grupo 76" transform="translate(202.76 169.22)">
      <g id="Grupo_70" data-name="Grupo 70" transform="translate(0 0)">
        <g id="Grupo_57" data-name="Grupo 57">
          <g id="Grupo_56" data-name="Grupo 56">
            <path id="Caminho_128" data-name="Caminho 128" d="M226.334,169.22v7.853h-.792c-1.007-6.087-3.366-7.06-8.645-7.06v22.782a2.461,2.461,0,0,0,1.584,1.567h-7.869a2.5,2.5,0,0,0,1.584-1.567V170.012c-5.279,0-7.638.973-8.644,7.06h-.792V169.22Z" transform="translate(-202.76 -169.22)" fill="#af8952"/>
          </g>
        </g>
        <g id="Grupo_59" data-name="Grupo 59" transform="translate(24.565)">
          <g id="Grupo_58" data-name="Grupo 58">
            <path id="Caminho_129" data-name="Caminho 129" d="M374.976,194.164a12.567,12.567,0,1,1,10.195-14.55A12.481,12.481,0,0,1,374.976,194.164Zm5.147-13.659c-1.056-5.988-4.768-10.393-8.545-10.393a4.681,4.681,0,0,0-.825.066c-4.042.726-6.4,6.5-5.279,12.9,1.056,5.972,4.767,10.392,8.529,10.392a4.888,4.888,0,0,0,.841-.082C378.885,192.679,381.244,186.9,380.123,180.5Z" transform="translate(-360.232 -169.22)" fill="#af8952"/>
          </g>
        </g>
        <g id="Grupo_61" data-name="Grupo 61" transform="translate(50.686)">
          <g id="Grupo_60" data-name="Grupo 60">
            <path id="Caminho_130" data-name="Caminho 130" d="M547.22,192.794a4.5,4.5,0,0,0,2.475,1.567h-7.852c.693-.215,1.072-.676.66-1.567l-4.933-8.645h-3.6v8.645a2.474,2.474,0,0,0,1.567,1.567h-7.852a2.434,2.434,0,0,0,1.567-1.567V170.788a2.433,2.433,0,0,0-1.567-1.568h13.28a7.464,7.464,0,0,1,1.221,14.765Zm-13.247-9.436h2.359a6.684,6.684,0,1,0,0-13.346h-2.359Z" transform="translate(-527.688 -169.22)" fill="#af8952"/>
          </g>
        </g>
        <g id="Grupo_63" data-name="Grupo 63" transform="translate(74.207)">
          <g id="Grupo_62" data-name="Grupo 62">
            <path id="Caminho_131" data-name="Caminho 131" d="M696.716,188.406l.742.264-3.167,5.691a3.51,3.51,0,0,0-2.293-.528c-2.112,0-5.081.528-7.243.528H678.47a2.434,2.434,0,0,0,1.567-1.567V170.788a2.434,2.434,0,0,0-1.567-1.568h6.285c2.161,0,5.131.528,7.243.528a3.509,3.509,0,0,0,2.293-.528l3.167,5.692-.742.247c-2.772-4.7-9.074-5.164-11.961-5.164V180.6h1.568a4,4,0,0,0,3.844-3.877h.791v8.562h-.791a4.017,4.017,0,0,0-3.844-3.894h-1.568v12.191C687.642,193.586,693.944,193.124,696.716,188.406Z" transform="translate(-678.47 -169.22)" fill="#af8952"/>
          </g>
        </g>
        <g id="Grupo_65" data-name="Grupo 65" transform="translate(94.182)">
          <g id="Grupo_64" data-name="Grupo 64">
            <path id="Caminho_132" data-name="Caminho 132" d="M825.377,184.925v9.436H806.521a2.435,2.435,0,0,0,1.567-1.567V170.788a2.434,2.434,0,0,0-1.567-1.568h7.852a2.436,2.436,0,0,0-1.568,1.568v22.781h3.151c3.531,0,7.621-2.54,8.628-8.644Z" transform="translate(-806.521 -169.22)" fill="#af8952"/>
          </g>
        </g>
        <g id="Grupo_67" data-name="Grupo 67" transform="translate(115.244)">
          <g id="Grupo_66" data-name="Grupo 66">
            <path id="Caminho_133" data-name="Caminho 133" d="M960.4,184.925v9.436H941.542a2.434,2.434,0,0,0,1.567-1.567V170.788a2.434,2.434,0,0,0-1.567-1.568h7.852a2.437,2.437,0,0,0-1.568,1.568v22.781h3.151c3.53,0,7.621-2.54,8.628-8.644Z" transform="translate(-941.542 -169.22)" fill="#af8952"/>
          </g>
        </g>
        <g id="Grupo_69" data-name="Grupo 69" transform="translate(130.007)">
          <g id="Grupo_68" data-name="Grupo 68">
            <path id="Caminho_134" data-name="Caminho 134" d="M1051.109,181.791v11a2.435,2.435,0,0,0,1.567,1.567h-7.853a2.437,2.437,0,0,0,1.567-1.567v-11l-7.555-11a6.319,6.319,0,0,0-2.656-1.568h6.285l.033.033-.033-.033h1.568c-.693.215-.907.775-.495,1.551l6.384,9.3,6.4-9.3c.412-.775.2-1.336-.495-1.551h5.477a6.5,6.5,0,0,0-2.574,1.485Z" transform="translate(-1036.179 -169.22)" fill="#af8952"/>
          </g>
        </g>
      </g>
      <g id="Grupo_71" data-name="Grupo 71" transform="translate(0 32.542)">
        <path id="Caminho_135" data-name="Caminho 135" d="M223.2,395.513a7.452,7.452,0,0,1-7.143,7.456v.017h-13.3a2.5,2.5,0,0,0,1.584-1.567V379.413a2.5,2.5,0,0,0-1.584-1.568h11.729a5.5,5.5,0,0,1,2.623,10.343A7.456,7.456,0,0,1,223.2,395.513Zm-14.154-16.876v9.419h1.518a4.71,4.71,0,1,0,0-9.419Zm9.42,16.876a7.036,7.036,0,0,0-7.061-6.664h-2.359v13.345H211.4A7.039,7.039,0,0,0,218.465,395.513Z" transform="translate(-202.76 -377.843)" fill="#fff"/>
        <path id="Caminho_136" data-name="Caminho 136" d="M344.61,402.978h7.853a3.736,3.736,0,0,1-2.162-1.567l-8.825-23.577-4.719,3.134a1.592,1.592,0,0,1,1.1.495l-6.846,19.948a3.593,3.593,0,0,1-2.109,1.567h5.491c-.689-.218-1.219-.642-1.055-1.52l1.644-4.743,1.084-3.175h-.006l.613-1.779.206-.6,2.333-6.757,2.5,6.669.931,2.469h-.006l.6,1.585.53,1.408,1.832,4.878A1.224,1.224,0,0,1,344.61,402.978Z" transform="translate(-309.226 -377.834)" fill="#fff"/>
        <path id="Caminho_137" data-name="Caminho 137" d="M492.588,395.513a7.568,7.568,0,0,1-5.625,7.077,10.425,10.425,0,0,1-2.508.4c-.89,0-2.309-.379-3.448-.379a2.05,2.05,0,0,0-1.369.379l-3.266-5.873.759-.264c2.359,3.976,5.807,5.18,8.232,5.18a5.87,5.87,0,0,0,1.4-.149c1.748-.478,2.623-2.87,1.946-5.378-.577-2.21-2.194-3.761-3.761-3.761a1.233,1.233,0,0,1-.248.017h-.362c-4.207,0-8.249-3.019-8.249-7.457a7.6,7.6,0,0,1,5.625-7.076,10.824,10.824,0,0,1,2.508-.38c.891,0,2.309.38,3.448.38a2.049,2.049,0,0,0,1.369-.38l3.266,5.874-.775.263c-2.342-3.976-5.79-5.18-8.215-5.18a5.9,5.9,0,0,0-1.4.149c-1.749.462-2.624,2.87-1.947,5.378.462,1.715,1.831,3.745,3.811,3.745h.165a3.109,3.109,0,0,1,.4-.017C488.547,388.057,492.588,391.092,492.588,395.513Z" transform="translate(-433.454 -377.843)" fill="#fff"/>
        <path id="Caminho_138" data-name="Caminho 138" d="M615.133,377.845V385.7h-.792c-1.007-6.087-3.366-7.06-8.645-7.06v22.782a2.461,2.461,0,0,0,1.584,1.567h-7.869A2.5,2.5,0,0,0,601,401.419V378.637c-5.279,0-7.638.973-8.644,7.06h-.792v-7.853Z" transform="translate(-530.909 -377.843)" fill="#fff"/>
        <path id="Caminho_139" data-name="Caminho 139" d="M763.775,402.789a12.567,12.567,0,1,1,10.195-14.55A12.483,12.483,0,0,1,763.775,402.789Zm5.147-13.659c-1.056-5.988-4.768-10.393-8.545-10.393a4.675,4.675,0,0,0-.825.066c-4.042.726-6.4,6.5-5.279,12.9,1.056,5.972,4.767,10.392,8.529,10.392a4.9,4.9,0,0,0,.841-.082C767.684,401.3,770.043,395.53,768.922,389.129Z" transform="translate(-663.817 -377.843)" fill="#fff"/>
        <path id="Caminho_140" data-name="Caminho 140" d="M940.808,395.513a7.567,7.567,0,0,1-5.625,7.077,10.424,10.424,0,0,1-2.508.4c-.89,0-2.309-.379-3.448-.379a2.05,2.05,0,0,0-1.369.379l-3.266-5.873.758-.264c2.359,3.976,5.807,5.18,8.233,5.18a5.868,5.868,0,0,0,1.4-.149c1.749-.478,2.623-2.87,1.946-5.378-.577-2.21-2.193-3.761-3.761-3.761a1.233,1.233,0,0,1-.248.017h-.362c-4.207,0-8.249-3.019-8.249-7.457a7.6,7.6,0,0,1,5.625-7.076,10.827,10.827,0,0,1,2.508-.38c.891,0,2.309.38,3.448.38a2.049,2.049,0,0,0,1.369-.38l3.266,5.874-.775.263c-2.342-3.976-5.79-5.18-8.215-5.18a5.9,5.9,0,0,0-1.4.149c-1.749.462-2.623,2.87-1.947,5.378.462,1.715,1.831,3.745,3.811,3.745h.165a3.113,3.113,0,0,1,.4-.017C936.767,388.057,940.808,391.092,940.808,395.513Z" transform="translate(-811.755 -377.843)" fill="#fff"/>
      </g>
      <g id="Grupo_74" data-name="Grupo 74" transform="translate(85.363 67.923)">
        <g id="Grupo_73" data-name="Grupo 73">
          <g id="Grupo_72" data-name="Grupo 72">
            <rect id="Retângulo_1318" data-name="Retângulo 1318" width="69.769" height="0.998" fill="#af8952"/>
          </g>
        </g>
      </g>
      <g id="Grupo_75" data-name="Grupo 75" transform="translate(0 64.843)">
        <path id="Caminho_141" data-name="Caminho 141" d="M206.437,584.9a.058.058,0,0,1,.06.04l2.918,7.027a.056.056,0,0,1,0,.06.063.063,0,0,1-.055.03h-.8a.058.058,0,0,1-.06-.04l-1.142-2.753h-2.528l-1.142,2.753a.058.058,0,0,1-.06.04h-.8a.063.063,0,0,1-.055-.03.056.056,0,0,1,0-.06l2.918-7.027a.064.064,0,0,1,.06-.04Zm.553,3.5-.9-2.169-.9,2.169Z" transform="translate(-202.76 -584.902)" fill="#fff"/>
        <path id="Caminho_142" data-name="Caminho 142" d="M273.848,584.9a3.562,3.562,0,0,1,2.484,6.134,3.55,3.55,0,0,1-2.544,1.023h-2.2a.057.057,0,0,1-.065-.065v-7.027a.057.057,0,0,1,.065-.065Zm0,6.244a2.666,2.666,0,1,0,0-5.331h-1.416v5.331Z" transform="translate(-260.793 -584.902)" fill="#fff"/>
        <path id="Caminho_143" data-name="Caminho 143" d="M339.98,585.062a.094.094,0,0,1,.095-.065h.708a.094.094,0,0,1,.079.04.1.1,0,0,1,.015.09l-2.389,6.947a.085.085,0,0,1-.09.065h-.633a.086.086,0,0,1-.09-.065l-2.389-6.947a.1.1,0,0,1,.015-.09.1.1,0,0,1,.08-.04h.708a.085.085,0,0,1,.09.065l1.9,5.531Z" transform="translate(-314.61 -584.982)" fill="#fff"/>
        <path id="Caminho_144" data-name="Caminho 144" d="M395.327,585a3.576,3.576,0,1,1-2.523,1.047A3.439,3.439,0,0,1,395.327,585Zm0,6.229a2.656,2.656,0,1,0-1.88-.778A2.573,2.573,0,0,0,395.327,591.226Z" transform="translate(-362.274 -584.982)" fill="#fff"/>
        <path id="Caminho_145" data-name="Caminho 145" d="M469.14,591.46a.057.057,0,0,1-.02.09,3.482,3.482,0,0,1-1.95.579,3.543,3.543,0,0,1-2.589-1.117,3.574,3.574,0,0,1,2.3-6.015,3.487,3.487,0,0,1,2.229.564.057.057,0,0,1,.02.09l-.439.644a.057.057,0,0,1-.09.02,2.667,2.667,0,0,0-4.1,2.209,2.674,2.674,0,0,0,2.663,2.7,2.593,2.593,0,0,0,1.441-.424.058.058,0,0,1,.09.02Z" transform="translate(-422.909 -584.972)" fill="#fff"/>
        <path id="Caminho_146" data-name="Caminho 146" d="M524.1,584.9a.058.058,0,0,1,.06.04l2.918,7.027a.056.056,0,0,1,0,.06.063.063,0,0,1-.055.03h-.8a.058.058,0,0,1-.06-.04l-1.142-2.753h-2.529l-1.142,2.753a.059.059,0,0,1-.06.04h-.8a.063.063,0,0,1-.055-.03.056.056,0,0,1,0-.06l2.918-7.027a.064.064,0,0,1,.06-.04Zm.554,3.5-.9-2.169-.9,2.169Z" transform="translate(-470.869 -584.902)" fill="#fff"/>
        <path id="Caminho_147" data-name="Caminho 147" d="M591.742,591.46a.058.058,0,0,1-.02.09,3.483,3.483,0,0,1-1.95.579,3.542,3.542,0,0,1-2.588-1.117,3.574,3.574,0,0,1,2.3-6.015,3.486,3.486,0,0,1,2.229.564.057.057,0,0,1,.02.09l-.439.644a.058.058,0,0,1-.09.02,2.667,2.667,0,0,0-4.1,2.209,2.673,2.673,0,0,0,2.663,2.7,2.594,2.594,0,0,0,1.441-.424.058.058,0,0,1,.09.02Z" transform="translate(-526.386 -584.972)" fill="#fff"/>
        <path id="Caminho_148" data-name="Caminho 148" d="M648.87,585a.057.057,0,0,1,.065.065v7.012a.057.057,0,0,1-.065.065h-.783a.057.057,0,0,1-.065-.065v-7.012a.057.057,0,0,1,.065-.065Z" transform="translate(-578.564 -584.982)" fill="#fff"/>
        <path id="Caminho_149" data-name="Caminho 149" d="M683.577,584.9a.058.058,0,0,1,.06.04l2.917,7.027a.056.056,0,0,1,0,.06.063.063,0,0,1-.055.03h-.8a.058.058,0,0,1-.06-.04l-1.142-2.753h-2.529l-1.142,2.753a.058.058,0,0,1-.06.04h-.8a.062.062,0,0,1-.055-.03.056.056,0,0,1-.005-.06l2.917-7.027a.064.064,0,0,1,.06-.04Zm.553,3.5-.9-2.169-.9,2.169Z" transform="translate(-605.47 -584.902)" fill="#fff"/>
      </g>
    </g>
  </g>
</svg>
